<?xml version="1.0" encoding="UTF-8"?><svg xmlns="http://www.w3.org/2000/svg" xmlns:xlink="http://www.w3.org/1999/xlink" contentScriptType="application/ecmascript" contentStyleType="text/css" height="454px" preserveAspectRatio="none" style="width:677px;height:454px;" version="1.1" viewBox="0 0 677 454" width="677px" zoomAndPan="magnify">
    <defs>
        <filter height="300%" id="f5iq7mj0reoaa" width="300%" x="-1" y="-1">
            <feGaussianBlur result="blurOut" stdDeviation="2.0"/>
            <feColorMatrix in="blurOut" result="blurOut2" type="matrix" values="0 0 0 0 0 0 0 0 0 0 0 0 0 0 0 0 0 0 .4 0"/>
            <feOffset dx="4.0" dy="4.0" in="blurOut2" result="blurOut3"/>
            <feBlend in="SourceGraphic" in2="blurOut3" mode="normal"/>
        </filter>
    </defs>
    <g>
        <!--cluster system-->
        <rect fill="#FFFFFF" filter="url(#f5iq7mj0reoaa)" height="350" style="stroke: #000000; stroke-width: 2.0;" width="168" x="502" y="24.5"/>
        <text fill="#000000" font-family="sans-serif" font-size="14" font-weight="bold" lengthAdjust="spacingAndGlyphs" textLength="49" x="561.5" y="41.0332">system</text>
        <ellipse cx="586.2193" cy="208.4517" fill="#FEFECE" filter="url(#f5iq7mj0reoaa)" rx="44.7193" ry="15.4517" style="stroke: #A80036; stroke-width: 1.5;"/>
        <text fill="#000000" font-family="sans-serif" font-size="14" lengthAdjust="spacingAndGlyphs" textLength="59" x="556.7193" y="213.7564">database</text>
        <ellipse cx="585.9558" cy="142.4517" fill="#FEFECE" filter="url(#f5iq7mj0reoaa)" rx="28.4558" ry="15.4517" style="stroke: #A80036; stroke-width: 1.5;"/>
        <text fill="#000000" font-family="sans-serif" font-size="14" lengthAdjust="spacingAndGlyphs" textLength="36" x="567.9558" y="147.7564">install</text>
        <ellipse cx="586.1127" cy="76.4517" fill="#FEFECE" filter="url(#f5iq7mj0reoaa)" rx="34.1127" ry="15.4517" style="stroke: #A80036; stroke-width: 1.5;"/>
        <text fill="#000000" font-family="sans-serif" font-size="14" lengthAdjust="spacingAndGlyphs" textLength="44" x="564.1127" y="81.7564">update</text>
        <ellipse cx="585.7635" cy="275.4527" fill="#FEFECE" filter="url(#f5iq7mj0reoaa)" rx="67.7635" ry="15.9527" style="stroke: #A80036; stroke-width: 1.5;"/>
        <text fill="#000000" font-family="sans-serif" font-size="14" lengthAdjust="spacingAndGlyphs" textLength="95" x="538.2635" y="280.7574">user registratie</text>
        <ellipse cx="586.1274" cy="342.4517" fill="#FEFECE" filter="url(#f5iq7mj0reoaa)" rx="25.6274" ry="15.4517" style="stroke: #A80036; stroke-width: 1.5;"/>
        <text fill="#000000" font-family="sans-serif" font-size="14" lengthAdjust="spacingAndGlyphs" textLength="32" x="570.1274" y="347.7564">party</text>
        <!--entity administrator-->
        <ellipse cx="232" cy="77" fill="#FEFECE" filter="url(#f5iq7mj0reoaa)" rx="8" ry="8" style="stroke: #A80036; stroke-width: 2.0;"/>
        <path d="M232,85 L232,112 M219,93 L245,93 M232,112 L219,127 M232,112 L245,127 " fill="#FEFECE" filter="url(#f5iq7mj0reoaa)" style="stroke: #A80036; stroke-width: 2.0;"/>
        <text fill="#000000" font-family="sans-serif" font-size="14" lengthAdjust="spacingAndGlyphs" textLength="82" x="191" y="148.5332">administrator</text>
        <!--entity visitor-->
        <ellipse cx="232" cy="276" fill="#FEFECE" filter="url(#f5iq7mj0reoaa)" rx="8" ry="8" style="stroke: #A80036; stroke-width: 2.0;"/>
        <path d="M232,284 L232,311 M219,292 L245,292 M232,311 L219,326 M232,311 L245,326 " fill="#FEFECE" filter="url(#f5iq7mj0reoaa)" style="stroke: #A80036; stroke-width: 2.0;"/>
        <text fill="#000000" font-family="sans-serif" font-size="14" lengthAdjust="spacingAndGlyphs" textLength="37" x="213.5" y="347.5332">visitor</text>
        <polygon fill="#FBFB77" filter="url(#f5iq7mj0reoaa)" points="6,386,6,445.0547,458,445.0547,458,396,448,386,6,386" style="stroke: #A80036; stroke-width: 1.0;"/>
        <polygon fill="#FBFB77" points="6,386,6,445.0547,458,445.0547,458,396,448,386,236,386,232,351.0887,228,386,6,386" style="stroke: #A80036; stroke-width: 1.0;"/>
        <line style="stroke: #A80036; stroke-width: 1.0;" x1="448" x2="448" y1="386" y2="396"/>
        <line style="stroke: #A80036; stroke-width: 1.0;" x1="458" x2="448" y1="396" y2="396"/>
        <text fill="#000000" font-family="sans-serif" font-size="13" lengthAdjust="spacingAndGlyphs" textLength="352" x="12" y="404.4951">Aannamen: De bezoeker gebruikt de nieuwste browser versie</text>
        <text fill="#000000" font-family="sans-serif" font-size="13" lengthAdjust="spacingAndGlyphs" textLength="427" x="12" y="420.8467">Interactie: De user registreerd zich voor deelname aan 1 of meer feest(en).</text>
        <text fill="#000000" font-family="sans-serif" font-size="13" lengthAdjust="spacingAndGlyphs" textLength="90" x="12" y="437.1982">Uitzonderingen:</text>
        <path d="M586,172.522 C586,167.751 586,162.981 586,158.21 " fill="none" style="stroke: #A80036; stroke-width: 1.0; stroke-dasharray: 7.0,7.0;"/>
        <polygon fill="none" points="593,172.773,586,192.773,579,172.773,593,172.773" style="stroke: #A80036; stroke-width: 1.0;"/>
        <path d="M586,106.522 C586,101.751 586,96.981 586,92.21 " fill="none" style="stroke: #A80036; stroke-width: 1.0; stroke-dasharray: 7.0,7.0;"/>
        <polygon fill="none" points="593,106.773,586,126.773,579,106.773,593,106.773" style="stroke: #A80036; stroke-width: 1.0;"/>
        <path d="M273.036,113.253 C345.294,120.028 495.727,134.131 557.558,139.927 " fill="none" style="stroke: #A80036; stroke-width: 1.0;"/>
        <path d="M273.036,105.747 C343.312,99.158 487.533,85.638 552.273,79.568 " fill="none" style="stroke: #A80036; stroke-width: 1.0;"/>
        <path d="M586,259.273 C586,254.365 586,249.456 586,244.547 " fill="none" style="stroke: #A80036; stroke-width: 1.0; stroke-dasharray: 7.0,7.0;"/>
        <polygon fill="none" points="579,244.367,586,224.367,593,244.367,579,244.367" style="stroke: #A80036; stroke-width: 1.0;"/>
        <path d="M250.94,306.818 C300.395,302.182 440.45,289.052 522.668,281.344 " fill="none" style="stroke: #A80036; stroke-width: 1.0;"/>
        <path d="M250.94,310.233 C309.221,315.862 493.327,333.645 560.318,340.116 " fill="none" style="stroke: #A80036; stroke-width: 1.0;"/>
        <path d="M586,326.797 C586,321.746 586,316.694 586,311.643 " fill="none" style="stroke: #A80036; stroke-width: 1.0;"/>
        <polygon fill="none" points="579,311.53,586,291.53,593,311.53,579,311.53" style="stroke: #A80036; stroke-width: 1.0;"/>
        <path d="M531.074,224.54 C518.412,229.377 505.342,235.347 494,242.5 C474.199,254.987 466.89,270.436 476,292 C489.698,324.423 532.563,336.037 560.562,340.192 " fill="none" style="stroke: #A80036; stroke-width: 1.0; stroke-dasharray: 7.0,7.0;"/>
        <polygon fill="none" points="529.137,217.802,550.327,217.863,533.724,231.03,529.137,217.802" style="stroke: #A80036; stroke-width: 1.0;"/>
        <!--
@startuml
left to right direction
skinparam packageStyle rectangle
    actor administrator
    actor visitor
    
rectangle system{
    (database) <|. (install)
    (install) <|. (update)
    administrator - (install)
    administrator - (update)
    (user registratie) .|>  (database)
    visitor - (user registratie)
    visitor - (party)
    (party) -|> (user registratie)
    (database) <|. (party)
}
note bottom of visitor
    Aannamen: De bezoeker gebruikt de nieuwste browser versie
    Interactie: De user registreerd zich voor deelname aan 1 of meer feest(en). 
    Uitzonderingen:
end note
@enduml

PlantUML version 2017.11(Wed Apr 19 18:18:59 CEST 2017)
(GPL source distribution)
Java Runtime: Java(TM) SE Runtime Environment
JVM: Java HotSpot(TM) 64-Bit Server VM
Java Version: 1.8.0_112-b15
Operating System: Windows 10
OS Version: 10.0
Default Encoding: Cp1252
Language: nl
Country: NL
-->
    </g>
</svg>
